<svg width="36" height="36" viewBox="0 0 36 36" fill="none" xmlns="http://www.w3.org/2000/svg">
<path fill-rule="evenodd" clip-rule="evenodd" d="M17.9575 35.3239C8.29407 35.3239 0.45752 27.4148 0.45752 17.662C0.45752 7.90908 8.29407 0 17.9575 0C27.621 0 35.4575 7.90908 35.4575 17.662C35.4575 27.4148 27.621 35.3239 17.9575 35.3239ZM17.9575 6.1739C22.7448 6.1739 26.6255 10.0905 26.6255 14.9221C26.6255 19.7536 17.9575 29.1499 17.9575 29.1499C17.9575 29.1499 9.28951 19.7536 9.28951 14.9221C9.28951 10.0905 13.1702 6.1739 17.9575 6.1739ZM17.9575 11.4463C19.7726 11.4463 21.2445 12.9319 21.2445 14.7639C21.2445 16.5957 19.7726 18.0813 17.9575 18.0813C16.1425 18.0813 14.6706 16.5957 14.6706 14.7639C14.6706 12.9319 16.1425 11.4463 17.9575 11.4463Z" fill="white"/>
</svg>
