<svg width="36" height="35" viewBox="0 0 36 35" fill="none" xmlns="http://www.w3.org/2000/svg">
<path d="M18.0417 0C8.33083 0 0.45752 7.79544 0.45752 17.4102C0.45752 27.0251 8.33083 34.8205 18.0417 34.8205C27.7525 34.8205 35.6258 27.0251 35.6258 17.4102C35.6258 7.79544 27.7525 0 18.0417 0ZM26.8338 27.2035C16.5316 27.2035 8.15059 18.9054 8.15059 8.70512C8.15059 8.10447 8.64295 7.61698 9.2496 7.61698H13.3071C13.9138 7.61698 14.4062 8.10447 14.4062 8.70512C14.4062 10.5854 14.8194 12.3765 15.6348 14.0261C15.7645 14.2873 15.7821 14.5854 15.6854 14.8596C15.5909 15.1339 15.3887 15.358 15.1249 15.4842L13.4852 16.2677C14.8502 18.6203 16.8196 20.5724 19.1934 21.9195L19.9847 20.2982C20.1122 20.037 20.3386 19.839 20.6156 19.7432C20.8925 19.6496 21.1958 19.6671 21.4574 19.7933C23.1279 20.6007 24.9347 21.0098 26.8316 21.0098C27.4382 21.0098 27.9306 21.4973 27.9306 22.098V26.1154H27.9328C27.9328 26.716 27.4404 27.2035 26.8338 27.2035Z" fill="white"/>
</svg>
