<svg width="20" height="21" viewBox="0 0 20 21" fill="none" xmlns="http://www.w3.org/2000/svg">
<path d="M1.36274 20.3635H19.5472C19.6587 20.3635 19.7656 20.3192 19.8445 20.2404C19.9233 20.1615 19.9676 20.0546 19.9676 19.9431V17.8687C19.9661 17.3363 19.8396 16.8117 19.5983 16.3371C19.357 15.8626 19.0076 15.4513 18.5783 15.1364C16.9305 13.9321 15.5791 13.2301 14.4673 13.0073C14.4421 12.9485 14.4032 12.8966 14.3538 12.856L13.3554 12.0363C13.2772 11.972 13.1785 11.9382 13.0773 11.9409C12.9762 11.9436 12.8794 11.9827 12.8048 12.051L10.455 14.1948L8.10521 12.0447C8.03056 11.9764 7.93378 11.9373 7.83262 11.9346C7.73147 11.9318 7.63273 11.9657 7.55455 12.03L6.55621 12.8497C6.5068 12.8903 6.46788 12.9422 6.44271 13.001C5.33087 13.2301 3.97944 13.9321 2.33375 15.1385C1.90384 15.4529 1.5539 15.8641 1.3122 16.3387C1.0705 16.8133 0.943819 17.3382 0.942383 17.8708V19.9431C0.942383 20.0546 0.98667 20.1615 1.0655 20.2404C1.14433 20.3192 1.25125 20.3635 1.36274 20.3635ZM10.455 15.3066L11.592 16.2398L10.9846 17.0006H9.93375L9.32634 16.2356L10.455 15.3066ZM10.0178 17.8414H10.8922L11.5059 19.5228H9.4041L10.0178 17.8414ZM19.1269 17.8645V19.5228H12.4012L11.6656 17.5009L12.2436 16.7716L12.479 16.9649C12.5541 17.0271 12.6484 17.0613 12.7459 17.0616C12.7821 17.0608 12.8181 17.0559 12.8531 17.0469C12.9173 17.0296 12.9765 16.9974 13.0258 16.9528C13.0751 16.9082 13.1132 16.8526 13.1368 16.7905L14.2865 13.8207C15.2701 14.0309 16.5438 14.6908 18.0697 15.8153C18.395 16.0503 18.6602 16.3587 18.8439 16.7155C19.0276 17.0723 19.1246 17.4674 19.1269 17.8687V17.8645ZM13.1032 12.9106L13.5866 13.3057L12.5568 15.9498L11.0855 14.7476L13.1032 12.9106ZM7.80676 12.9106L9.82446 14.7455L8.35322 15.9498L7.32335 13.3057L7.80676 12.9106ZM1.78309 17.8687C1.78502 17.4683 1.88115 17.074 2.06371 16.7176C2.24627 16.3612 2.51014 16.0528 2.83397 15.8174C4.37037 14.6929 5.64404 14.0245 6.61716 13.8228L7.77313 16.7905C7.79726 16.8525 7.83575 16.9078 7.88544 16.952C7.93513 16.9962 7.9946 17.028 8.05897 17.0448C8.09402 17.0538 8.12998 17.0587 8.16616 17.0595C8.26366 17.0592 8.35801 17.025 8.43308 16.9628L8.66848 16.7695L9.24647 17.4988L8.51085 19.5228H1.78519L1.78309 17.8687Z" fill="#006161"/>
<path d="M6.10672 5.52916C6.07107 6.29948 6.1956 7.06882 6.47243 7.78856C6.43175 8.53086 6.54185 9.27371 6.7961 9.9723C7.26689 11.2334 9.15428 12.6247 10.2178 12.7508H10.7075C11.7584 12.6247 13.65 11.2292 14.1313 9.9723C14.3949 9.2477 14.503 8.47573 14.4486 7.70659V7.34509C14.7008 6.7671 14.9972 5.24332 14.8038 4.36688C14.7555 4.00958 14.2658 1.07552 10.8441 0.659366C8.21479 0.339897 7.38669 1.58414 6.85074 2.40804C6.72649 2.61633 6.57682 2.80836 6.40517 2.97972C5.6065 3.65228 5.03271 4.22607 5.00959 4.24078C4.96818 4.28185 4.93577 4.33109 4.91443 4.38537C4.89308 4.43964 4.88326 4.49777 4.88559 4.55604C4.88818 4.61458 4.90298 4.67194 4.92904 4.72442C4.9551 4.7769 4.99185 4.82336 5.03692 4.8608C5.36645 5.12424 5.72545 5.34853 6.10672 5.52916ZM13.3452 9.67595C12.9963 10.5965 11.42 11.8008 10.6297 11.9122H10.2955C9.50528 11.8008 7.93316 10.5965 7.58216 9.67595C7.36273 9.06574 7.27254 8.41657 7.31734 7.76965V7.75283C7.31853 7.74729 7.31853 7.74156 7.31734 7.73602C7.31734 7.73602 7.3888 6.55483 8.1055 6.09874C8.52451 6.14623 8.94755 6.14623 9.36656 6.09874C11.0017 5.88856 11.9034 5.32949 12.2964 5.01003C12.8303 5.32109 13.2422 6.0483 13.6121 7.30936V7.72971C13.6111 7.74721 13.6111 7.76476 13.6121 7.78226C13.6538 8.42511 13.563 9.06967 13.3452 9.67595ZM6.94112 3.62286C7.17543 3.40218 7.37839 3.15043 7.54433 2.87463C8.05296 2.10538 8.63094 1.23735 10.7474 1.49377C13.6899 1.85107 13.9631 4.37109 13.9736 4.47828C13.9726 4.49718 13.9726 4.51612 13.9736 4.53503C14.0397 4.95738 14.0354 5.38774 13.961 5.8087C13.6121 5.03945 13.1203 4.3837 12.3532 4.10837C12.273 4.0812 12.1865 4.07828 12.1047 4.09996C12.0228 4.12164 11.9491 4.16696 11.8929 4.23027C11.8929 4.23027 11.1867 5.02053 9.26357 5.25803C8.86864 5.30845 8.4689 5.30845 8.07397 5.25803C7.99102 5.2477 7.90687 5.26234 7.83227 5.30007C7.46635 5.48674 7.16204 5.775 6.95583 6.13027C6.9351 5.85603 6.9351 5.58062 6.95583 5.30638C6.96272 5.21825 6.94165 5.13019 6.89561 5.05472C6.84958 4.97926 6.78093 4.92023 6.69942 4.88602C6.44236 4.77695 6.19368 4.64909 5.95539 4.5035C6.2013 4.2702 6.54389 3.95704 6.94112 3.62286Z" fill="#006161"/>
</svg>
