<svg width="16" height="17" viewBox="0 0 16 17" fill="none" xmlns="http://www.w3.org/2000/svg">
<path d="M13.1213 1.60327H12.1617V1.12349C12.1617 0.858782 11.9467 0.643707 11.682 0.643707C11.4173 0.643707 11.2022 0.858782 11.2022 1.12349V1.60327H5.44479V1.12349C5.44479 0.858782 5.22972 0.643707 4.96501 0.643707C4.7003 0.643707 4.48523 0.858782 4.48523 1.12349V1.60327H3.52567C1.93577 1.60327 0.646973 2.89207 0.646973 4.48196V14.0776C0.646973 15.6675 1.93577 16.9563 3.52567 16.9563H13.1213C14.7112 16.9563 16 15.6675 16 14.0776V4.48196C16 2.89207 14.7112 1.60327 13.1213 1.60327ZM15.0404 14.0776C15.0388 15.1364 14.1801 15.9951 13.1213 15.9967H3.52567C2.46684 15.9951 1.60819 15.1364 1.60654 14.0776V6.40109H15.0404V14.0776ZM15.0404 5.44153H1.60654V4.48196C1.60819 3.42313 2.46684 2.56449 3.52567 2.56284H4.48523V3.04262C4.48523 3.30732 4.7003 3.5224 4.96501 3.5224C5.22972 3.5224 5.44479 3.30732 5.44479 3.04262V2.56284H11.2022V3.04262C11.2022 3.30732 11.4173 3.5224 11.682 3.5224C11.9467 3.5224 12.1617 3.30732 12.1617 3.04262V2.56284H13.1213C14.1801 2.56449 15.0388 3.42313 15.0404 4.48196V5.44153ZM5.58542 12.0179C5.40178 11.8276 5.40674 11.5232 5.597 11.3395C5.7823 11.1592 6.07844 11.1592 6.26373 11.3395L7.804 12.8798L11.3064 8.50055C11.4718 8.29375 11.7746 8.26066 11.9814 8.4261C12.1882 8.59155 12.2213 8.8943 12.0559 9.10111L8.2176 13.8989C8.13157 14.0048 8.00584 14.071 7.87017 14.0776H7.8437C7.71631 14.0776 7.59389 14.028 7.50455 13.937L5.58542 12.0179Z" fill="#006161"/>
</svg>
