<svg width="18" height="20" viewBox="0 0 18 20" fill="none" xmlns="http://www.w3.org/2000/svg">
<path d="M13.121 4.14438H4.89837C4.58428 4.14438 4.32959 4.39819 4.32959 4.7112C4.32959 5.02421 4.58428 5.27802 4.89837 5.27802H13.1216C13.4357 5.27802 13.6904 5.02421 13.6904 4.7112C13.6904 4.39819 13.4351 4.14438 13.121 4.14438Z" fill="#2563EB"/>
<path d="M13.6898 7.90694C13.6898 7.59393 13.4351 7.34012 13.121 7.34012H4.89837C4.58428 7.34012 4.32959 7.59393 4.32959 7.90694C4.32959 8.21995 4.58428 8.47376 4.89837 8.47376H13.1216C13.4351 8.47376 13.6898 8.21995 13.6898 7.90694Z" fill="#2563EB"/>
<path d="M4.89837 10.5363C4.58428 10.5363 4.32959 10.7901 4.32959 11.1031C4.32959 11.4161 4.58428 11.67 4.89837 11.67H9.04032C9.35442 11.67 9.6091 11.4161 9.6091 11.1031C9.6091 10.7901 9.35442 10.5363 9.04032 10.5363H4.89837Z" fill="#2563EB"/>
<path d="M6.37462 18.3296H2.85515C2.3698 18.3296 1.97544 17.936 1.97544 17.4529V2.70554C1.97544 2.22186 2.37043 1.82886 2.85515 1.82886H15.1635C15.6482 1.82886 16.0432 2.22249 16.0432 2.70554V8.08718C16.0432 8.40019 16.2979 8.654 16.612 8.654C16.9261 8.654 17.1807 8.40019 17.1807 8.08718V2.70554C17.1807 1.59709 16.2758 0.695221 15.1641 0.695221H2.85515C1.74288 0.695221 0.837891 1.59709 0.837891 2.70554V17.4529C0.837891 18.5614 1.74288 19.4633 2.85515 19.4633H6.37462C6.68871 19.4633 6.94339 19.2094 6.94339 18.8964C6.94339 18.5834 6.68871 18.3296 6.37462 18.3296Z" fill="#2563EB"/>
<path d="M17.2162 10.6547C16.3908 9.8316 15.0466 9.8316 14.2219 10.6547L8.9923 15.8663C8.82672 16.0313 8.71802 16.2404 8.67884 16.4703L8.39318 18.1601C8.33251 18.5159 8.44943 18.8806 8.70538 19.1356C8.91646 19.3466 9.20401 19.4631 9.49851 19.4631C9.56044 19.4631 9.62237 19.4581 9.68431 19.4474L11.3786 19.1621C11.6099 19.1237 11.8204 19.016 11.986 18.8503L17.2155 13.6387C18.0415 12.8162 18.0415 11.4773 17.2162 10.6547ZM11.1909 18.0442L9.51494 18.3484L9.79617 16.6674L13.5596 12.917L14.9461 14.2988L11.1909 18.0442ZM16.4117 12.837L15.75 13.497L14.3634 12.1153L15.0258 11.4552C15.2166 11.265 15.4681 11.1699 15.719 11.1699C15.9699 11.1699 16.2208 11.265 16.4123 11.4552C16.794 11.8369 16.794 12.456 16.4117 12.837Z" fill="#2563EB"/>
</svg>
