<svg width="36" height="35" viewBox="0 0 36 35" fill="none" xmlns="http://www.w3.org/2000/svg">
<path fill-rule="evenodd" clip-rule="evenodd" d="M18.0417 0C27.7531 0 35.6258 7.79483 35.6258 17.4102C35.6258 27.0257 27.7531 34.8205 18.0417 34.8205C8.33021 34.8205 0.45752 27.0257 0.45752 17.4102C0.45752 7.79483 8.33021 0 18.0417 0ZM27.8081 23.0047V12.314L22.4092 17.6595L27.8081 23.005V23.0047ZM9.76476 23.4834H26.3186L21.4228 18.6364L19.5198 20.5203C19.389 20.6498 19.2115 20.7226 19.0265 20.7226H17.0568C16.9651 20.7226 16.8744 20.7048 16.7897 20.6701C16.705 20.6354 16.6281 20.5845 16.5633 20.5203L14.6606 18.6364L9.76476 23.4834ZM8.27478 12.3137V23.0047L13.6737 17.6592L8.27478 12.3137ZM26.8215 11.3371H9.26162L17.3455 19.341H18.7376L26.8215 11.3371ZM28.2392 9.9556H7.84424C7.58854 9.95594 7.34342 10.0567 7.16263 10.2357C6.98184 10.4148 6.88015 10.6575 6.87986 10.9106V24.1742C6.87985 24.2649 6.89789 24.3547 6.93294 24.4385C6.968 24.5223 7.01939 24.5984 7.08417 24.6626C7.14895 24.7267 7.22586 24.7776 7.3105 24.8123C7.39514 24.8469 7.48585 24.8648 7.57746 24.8648H28.506C28.691 24.8647 28.8684 24.7919 28.9991 24.6624C29.1299 24.5329 29.2034 24.3573 29.2035 24.1742V10.9106C29.2031 10.6575 29.1014 10.4149 28.9207 10.2359C28.7399 10.0569 28.4948 9.95613 28.2392 9.95574V9.9556Z" fill="white"/>
</svg>
