<svg width="16" height="19" viewBox="0 0 16 19" fill="none" xmlns="http://www.w3.org/2000/svg">
<path d="M7.85758 9.35273C8.78248 9.35273 9.68661 9.07846 10.4556 8.56462C11.2247 8.05077 11.824 7.32042 12.178 6.46593C12.5319 5.61144 12.6245 4.67118 12.4441 3.76405C12.2637 2.85693 11.8183 2.02368 11.1643 1.36968C10.5103 0.715676 9.67702 0.270296 8.7699 0.0898571C7.86277 -0.0905814 6.92251 0.00202619 6.06802 0.355969C5.21352 0.709912 4.48317 1.30929 3.96933 2.07832C3.45548 2.84734 3.18122 3.75147 3.18122 4.67636C3.18263 5.91618 3.67578 7.10481 4.55246 7.98149C5.42914 8.85817 6.61777 9.35131 7.85758 9.35273ZM7.85758 1.33611C8.51822 1.33611 9.16403 1.53201 9.71333 1.89904C10.2626 2.26607 10.6908 2.78775 10.9436 3.3981C11.1964 4.00845 11.2625 4.68007 11.1337 5.32802C11.0048 5.97596 10.6866 6.57114 10.2195 7.03828C9.75236 7.50543 9.15718 7.82356 8.50923 7.95244C7.86129 8.08133 7.18967 8.01518 6.57932 7.76236C5.96897 7.50955 5.44729 7.08142 5.08026 6.53211C4.71323 5.98281 4.51732 5.33701 4.51732 4.67636C4.51838 3.7908 4.87064 2.94181 5.49683 2.31562C6.12302 1.68943 6.97202 1.33717 7.85758 1.33611ZM15.6738 16.2771C15.5784 15.8727 15.4465 15.4778 15.2796 15.0973C14.0885 12.3783 11.2453 10.6888 7.85758 10.6888C4.01161 10.6888 0.877777 12.9094 0.0587457 16.2136C-0.0143934 16.5094 -0.0193045 16.818 0.0443841 17.116C0.108073 17.4139 0.238693 17.6935 0.426364 17.9336C0.614035 18.1737 0.853842 18.3679 1.12764 18.5016C1.40145 18.6353 1.70207 18.705 2.00678 18.7055H13.7111C14.0171 18.7062 14.3193 18.6371 14.5947 18.5035C14.8701 18.3699 15.1114 18.1753 15.3003 17.9345C15.4842 17.7047 15.6134 17.436 15.6781 17.1488C15.7428 16.8617 15.7413 16.5636 15.6738 16.2771ZM14.2535 17.1061C14.1893 17.1881 14.1072 17.2544 14.0136 17.3C13.92 17.3456 13.8172 17.3693 13.7131 17.3693H2.00678C1.90484 17.3691 1.80427 17.3457 1.71271 17.3009C1.62115 17.256 1.54099 17.191 1.47829 17.1106C1.4156 17.0302 1.37202 16.9366 1.35085 16.8368C1.32968 16.7371 1.33148 16.6339 1.3561 16.535C2.03417 13.7953 4.58413 12.0249 7.85758 12.0249C10.7062 12.0249 13.0804 13.4071 14.0538 15.6324C14.1885 15.9399 14.2952 16.259 14.3724 16.5857C14.3934 16.6759 14.3934 16.7698 14.3724 16.86C14.3515 16.9502 14.3101 17.0344 14.2515 17.1061H14.2535Z" fill="#006161"/>
</svg>
