<svg width="21" height="14" viewBox="0 0 21 14" fill="none" xmlns="http://www.w3.org/2000/svg">
<path d="M20.0946 6.80816C19.9139 6.56187 15.6093 0.777588 10.1115 0.777588C4.61365 0.777588 0.308798 6.56187 0.12833 6.80792C-0.0427767 7.04158 -0.0427767 7.35848 0.12833 7.59214C0.308798 7.83843 4.61365 13.6227 10.1115 13.6227C15.6093 13.6227 19.9139 7.83839 20.0946 7.59234C20.2659 7.35872 20.2659 7.04158 20.0946 6.80816ZM10.1115 12.2939C6.06174 12.2939 2.55424 8.45477 1.51595 7.1997C2.5529 5.94352 6.05305 2.10639 10.1115 2.10639C14.161 2.10639 17.6683 5.94486 18.707 7.2006C17.67 8.45674 14.1699 12.2939 10.1115 12.2939Z" fill="#3F833F"/>
<path d="M10.111 3.21375C7.90537 3.21375 6.11084 5.0021 6.11084 7.20018C6.11084 9.39826 7.90537 11.1866 10.111 11.1866C12.3167 11.1866 14.1112 9.39826 14.1112 7.20018C14.1112 5.0021 12.3167 3.21375 10.111 3.21375ZM10.111 9.85778C8.64051 9.85778 7.44427 8.66561 7.44427 7.20018C7.44427 5.73475 8.64055 4.54258 10.111 4.54258C11.5815 4.54258 12.7778 5.73475 12.7778 7.20018C12.7778 8.66561 11.5816 9.85778 10.111 9.85778Z" fill="#3F833F"/>
</svg>
