<svg width="18" height="19" viewBox="0 0 18 19" fill="none" xmlns="http://www.w3.org/2000/svg">
<path d="M17.1818 9.57564V7.04574C17.1818 6.18788 16.5164 5.49021 15.6757 5.42256L13.3262 1.31887C13.1085 0.939337 12.7569 0.668072 12.3363 0.555432C11.9176 0.443558 11.4797 0.502314 11.105 0.720423L3.05092 5.40937H1.63637C0.733908 5.40937 0 6.14324 0 7.04574V16.8639C0 17.7664 0.73387 18.5003 1.63637 18.5003H15.5455C16.4479 18.5003 17.1818 17.7664 17.1818 16.8639V14.334C17.657 14.1646 18 13.7147 18 13.1821V10.7276C18 10.1949 17.657 9.74508 17.1818 9.57564ZM14.725 5.40937H11.1593L13.8336 3.85242L14.725 5.40937ZM13.4271 3.1424L9.53325 5.40937H7.91812L13.0233 2.43707L13.4271 3.1424ZM11.5169 1.42752C11.7018 1.31925 11.918 1.29049 12.1245 1.34564C12.3335 1.40156 12.5077 1.5366 12.6159 1.72556L12.6168 1.72705L6.2921 5.40937H4.67705L11.5169 1.42752ZM16.3636 16.8639C16.3636 17.3149 15.9965 17.6821 15.5455 17.6821H1.63637C1.18535 17.6821 0.818206 17.3149 0.818206 16.8639V7.04574C0.818206 6.59472 1.18535 6.22757 1.63637 6.22757H15.5455C15.9965 6.22757 16.3636 6.59472 16.3636 7.04574V9.50028H13.9091C12.5556 9.50028 11.4545 10.6013 11.4545 11.9548C11.4545 13.3084 12.5556 14.4094 13.9091 14.4094H16.3636V16.8639ZM17.1818 13.1821C17.1818 13.4078 16.9985 13.5912 16.7727 13.5912H13.9091C13.0066 13.5912 12.2727 12.8573 12.2727 11.9548C12.2727 11.0524 13.0066 10.3184 13.9091 10.3184H16.7727C16.9984 10.3184 17.1818 10.5018 17.1818 10.7276V13.1821Z" fill="#006161"/>
<path d="M13.909 11.1366C13.458 11.1366 13.0908 11.5038 13.0908 11.9548C13.0908 12.4058 13.458 12.773 13.909 12.773C14.36 12.773 14.7272 12.4058 14.7272 11.9548C14.7272 11.5038 14.36 11.1366 13.909 11.1366Z" fill="#006161"/>
</svg>
